<svg height="512" width="512" xmlns="http://www.w3.org/2000/svg"><path d="M410.668 55C368.489 20.623 314.656 0 256 0S143.511 20.623 101.332 55z" fill="#8ac9fe"/><g fill="#8ac9fe"><path d="m477.923 141.113-1 6.197v195.511l1 6.079C492.715 317.357 501 282.143 501 245s-8.285-72.344-23.077-103.887zM35.077 147.192l-1-6.078C19.286 172.656 11 207.857 11 245s8.286 72.357 23.077 103.9l1-6.197zM109.241 432.742l-9.452 1C142.19 468.867 196.638 490 256 490s113.811-21.133 156.212-56.258l-9.213-1z"/></g><path d="M248.5 471.44c2.326-.919 4.851-1.44 7.5-1.44s5.174.522 7.5 1.44v-38.699h-15z" fill="#6c7fd8"/><path d="M34.077 101.161V348.9c15.45 32.942 38.005 61.886 65.711 84.842h312.423c27.706-22.956 50.261-51.9 65.711-84.842V101.161z" fill="#eaf6ff"/><path d="M34.077 101.161V348.9c10.959 23.368 25.51 44.71 42.923 63.344V101.161z" fill="#d8ecfe"/><path d="M483.369 54H28.631A9.631 9.631 0 0 0 19 63.631v28.898a9.631 9.631 0 0 0 9.631 9.631h454.737a9.631 9.631 0 0 0 9.631-9.631V63.631C493 58.312 488.688 54 483.369 54z" fill="#4f66d0"/><path d="M87.631 85.16A9.631 9.631 0 0 1 78 75.529V54H28.631A9.631 9.631 0 0 0 19 63.631v28.898a9.631 9.631 0 0 0 9.631 9.631h454.737a9.631 9.631 0 0 0 9.631-9.631V85.16z" fill="#314dc9"/><circle cx="256" cy="490.5" fill="#0593fc" r="21.5"/><path d="M251 490.5c0-8.95 5.472-16.618 13.25-19.854A21.428 21.428 0 0 0 256 469c-11.874 0-21.5 9.626-21.5 21.5S244.126 512 256 512c2.924 0 5.709-.589 8.25-1.646C256.472 507.118 251 499.45 251 490.5z" fill="#0182fc"/><path d="M274.562 258.562v-73a3 3 0 0 0-3-3h-35a3 3 0 0 0-3 3v73z" fill="#0593fc"/><path d="M253 182.562h-16.438a3 3 0 0 0-3 3v73H250v-73a3 3 0 0 1 3-3z" fill="#0182fc"/><path d="M326.562 258.562v-121a3 3 0 0 0-3-3h-35a3 3 0 0 0-3 3v121z" fill="#80d261"/><path d="M305 134.562h-16.438a3 3 0 0 0-3 3v121H302v-121a3 3 0 0 1 3-3z" fill="#68ca44"/><path d="M378.562 258.562v-41a3 3 0 0 0-3-3h-35a3 3 0 0 0-3 3v41z" fill="#fe646f"/><path d="M357 214.562h-16.438a3 3 0 0 0-3 3v41H354v-41a3 3 0 0 1 3-3z" fill="#fd4755"/><path d="M430.562 258.562v-57a3 3 0 0 0-3-3h-35a3 3 0 0 0-3 3v57z" fill="#fe9901"/><path d="M409 198.562h-16.438a3 3 0 0 0-3 3v57H406v-57a3 3 0 0 1 3-3z" fill="#fb8801"/><g><path d="M447.062 272.562h-230a3 3 0 0 1-3-3v-9a3 3 0 0 1 3-3h230a3 3 0 0 1 3 3v9a3 3 0 0 1-3 3z" fill="#4f66d0"/></g><g><path d="M194.861 215.562h-61.923a3 3 0 0 1-3-3v-61.923a3.011 3.011 0 0 0-3.146-3.005c-37.148 1.692-66.526 33.189-64.78 71.14.065 1.422.191 2.828.344 4.226H121c2.206 0 4 1.794 4 4v34c0 2.206-1.794 4-4 4H83.376c11.469 10.812 26.65 17.72 43.35 18.489 37.95 1.746 69.448-27.632 71.14-64.78a3.012 3.012 0 0 0-3.005-3.147z" fill="#0593fc"/><g fill="#0182fc"><path d="M62.356 223h25.062a67.605 67.605 0 0 1-.344-4.226c-1.383-30.071 16.783-56.074 42.864-66.424v-1.711a3.011 3.011 0 0 0-3.146-3.005c-37.148 1.692-66.526 33.189-64.78 71.14.065 1.422.191 2.828.344 4.226zM108.439 265H83.376c11.469 10.812 26.65 17.72 43.35 18.489a68.573 68.573 0 0 0 15.713-1.094c-12.993-2.446-24.712-8.642-34-17.395z"/></g><path d="M210.423 200a3.012 3.012 0 0 0 3.005-3.146c-.888-19.501-9.99-36.861-23.928-48.701-11.116-9.443-25.309-15.375-40.863-16.081a3.008 3.008 0 0 0-3.138 3.005V197a3 3 0 0 0 3 3z" fill="#fe646f"/><path d="M171 197v-60.051a67.694 67.694 0 0 0-22.362-4.878 3.008 3.008 0 0 0-3.138 3.005V197a3 3 0 0 0 3 3H174a3 3 0 0 1-3-3z" fill="#fd4755"/></g><g><path d="M178.938 327.062h-102c-4.143 0-7.5-3.358-7.5-7.5s3.357-7.5 7.5-7.5h102a7.5 7.5 0 0 1 0 15z" fill="#8795de"/><path d="M178.938 355.062h-102c-4.143 0-7.5-3.358-7.5-7.5s3.357-7.5 7.5-7.5h102a7.5 7.5 0 0 1 0 15z" fill="#4f66d0"/><path d="M178.938 383.062h-102c-4.143 0-7.5-3.358-7.5-7.5s3.357-7.5 7.5-7.5h102a7.5 7.5 0 0 1 0 15z" fill="#8795de"/></g><g><path d="M437.938 327.062h-229c-4.143 0-7.5-3.358-7.5-7.5s3.357-7.5 7.5-7.5h229a7.5 7.5 0 0 1 0 15z" fill="#8795de"/><path d="M437.938 355.062h-134c-4.143 0-7.5-3.358-7.5-7.5s3.357-7.5 7.5-7.5h134a7.5 7.5 0 0 1 0 15zM272.938 355.062h-64c-4.143 0-7.5-3.358-7.5-7.5s3.357-7.5 7.5-7.5h64a7.5 7.5 0 0 1 0 15z" fill="#4f66d0"/><path d="M437.938 383.062H389c-4.143 0-7.5-3.358-7.5-7.5s3.357-7.5 7.5-7.5h48.938a7.5 7.5 0 0 1 0 15zM358 383.062H208.938c-4.143 0-7.5-3.358-7.5-7.5s3.357-7.5 7.5-7.5H358c4.143 0 7.5 3.358 7.5 7.5s-3.357 7.5-7.5 7.5z" fill="#8795de"/></g><g><path d="M121 266H28a5 5 0 0 1-5-5v-34a5 5 0 0 1 5-5h93a5 5 0 0 1 5 5v34a5 5 0 0 1-5 5z" fill="#ffc344"/><path d="M55 261v-34a5 5 0 0 1 5-5H28a5 5 0 0 0-5 5v34a5 5 0 0 0 5 5h32a5 5 0 0 1-5-5z" fill="#f6ab31"/><path d="M104 251.5H45c-4.143 0-7.5-3.358-7.5-7.5s3.357-7.5 7.5-7.5h59c4.143 0 7.5 3.358 7.5 7.5s-3.357 7.5-7.5 7.5z" fill="#fff"/></g></svg>